<?xml version="1.0" encoding="utf-8"?><!-- Uploaded to: SVG Repo, www.svgrepo.com, Generator: SVG Repo Mixer Tools -->
<svg version="1.0" xmlns="http://www.w3.org/2000/svg"
 width="1579.000000pt" height="1579.000000pt" viewBox="0 0 1579.000000 1579.000000"
 preserveAspectRatio="xMidYMid meet">
<g transform="translate(0.000000,1579.000000) scale(0.100000,-0.100000)"
fill="#ffffff" stroke="none">
<path d="M7630 15778 c-1193 -31 -2411 -359 -3475 -935 -2236 -1211 -3761
-3422 -4084 -5923 -50 -388 -56 -490 -56 -1025 0 -522 6 -635 51 -985 219
-1725 980 -3294 2204 -4544 1162 -1185 2678 -1978 4305 -2250 519 -87 1004
-119 1575 -104 1451 38 2864 487 4100 1303 1918 1266 3199 3328 3479 5600 44
356 55 554 55 980 0 426 -11 623 -55 980 -165 1349 -691 2649 -1516 3747 -836
1112 -1957 1994 -3219 2531 -1076 458 -2151 658 -3364 625z m895 -452 c891
-83 1668 -287 2462 -646 805 -365 1579 -907 2211 -1547 1035 -1049 1733 -2363
2016 -3793 290 -1465 133 -2980 -451 -4355 -537 -1262 -1421 -2361 -2548
-3164 -1007 -718 -2159 -1168 -3395 -1325 -512 -65 -1142 -73 -1660 -21 -564
58 -1061 163 -1595 340 -1503 496 -2789 1443 -3734 2749 -628 868 -1075 1921
-1270 2990 -88 478 -116 804 -116 1341 0 450 11 622 61 992 134 1000 473 1968
992 2833 676 1125 1665 2080 2807 2707 970 533 2013 835 3150 913 197 13 870
4 1070 -14z"/>
<path d="M4179 9992 c-42 -21 -61 -40 -86 -82 l-33 -54 0 -1773 0 -1774 21
-41 c42 -82 117 -127 212 -128 98 0 172 46 213 135 l24 50 0 1749 c0 1298 -3
1759 -12 1787 -15 52 -73 117 -122 140 -64 29 -152 25 -217 -9z"/>
<path d="M11400 10004 c-50 -22 -89 -61 -116 -119 l-24 -50 0 -1755 0 -1755
24 -50 c41 -89 114 -135 214 -135 80 0 151 36 195 98 l32 47 3 1785 2 1786
-32 54 c-44 73 -113 110 -202 110 -33 -1 -77 -8 -96 -16z"/>
<path d="M5992 9064 c-56 -28 -92 -67 -117 -127 -13 -32 -15 -237 -15 -1784 0
-1202 3 -1760 11 -1786 13 -46 69 -112 119 -137 116 -59 256 -14 315 103 l25
51 0 1765 c0 1694 -1 1768 -19 1807 -53 116 -202 167 -319 108z"/>
<path d="M9640 9081 c-78 -24 -152 -93 -170 -159 -7 -28 -9 -581 -8 -1799 l3
-1760 30 -49 c19 -30 49 -60 80 -79 43 -27 57 -30 124 -30 106 1 171 40 212
130 18 38 19 115 19 1809 l0 1770 -21 43 c-46 94 -173 153 -269 124z"/>
<path d="M7817 8136 c-58 -21 -103 -61 -131 -118 l-26 -52 0 -1750 c0 -1247 3
-1763 11 -1791 17 -62 100 -139 167 -155 101 -24 203 16 259 101 l28 43 3
1770 c2 1178 -1 1783 -7 1806 -34 117 -184 188 -304 146z"/>
</g>
</svg>